<?xml version="1.0" encoding="utf-8"?>
<!-- Generator: Adobe Illustrator 15.1.0, SVG Export Plug-In . SVG Version: 6.00 Build 0)  -->
<!DOCTYPE svg PUBLIC "-//W3C//DTD SVG 1.1//EN" "http://www.w3.org/Graphics/SVG/1.1/DTD/svg11.dtd">
<svg version="1.1" id="Calque_1" xmlns="http://www.w3.org/2000/svg" xmlns:xlink="http://www.w3.org/1999/xlink" x="0px" y="0px"
	 width="341.347px" height="59.992px" viewBox="0 0 341.347 59.992" enable-background="new 0 0 341.347 59.992"
	 xml:space="preserve">
<g>
	<path fill-rule="evenodd" clip-rule="evenodd" fill="#FECB05" d="M38.636,14.63c-21.732-11.211,0,0-21.732-11.211
		c0.739-2.128,2.989-3.949,6.209-3.277c2.336,0.488,4.902,2.361,7.589,3.795C35.202,6.338,41.347,7.851,38.636,14.63z"/>
	<polygon fill-rule="evenodd" clip-rule="evenodd" fill="#FECB05" points="21.56,8.421 7.071,36.708 1.208,33.775 15.695,5.489 	"/>
	<polygon fill-rule="evenodd" clip-rule="evenodd" fill="#FECB05" points="29.494,12.561 15.006,40.847 9.142,37.915 23.63,9.628 	
		"/>
	<path fill-rule="evenodd" clip-rule="evenodd" fill="#FECB05" d="M0,35.845l21.732,11.211L1.208,59.992L0,35.845z M3.105,47.402
		c2.649,1.2,5.093,2.611,7.589,3.967c1.928-1.521,4.239-2.66,6.209-4.14c-4.858-2.214-9.184-4.96-14.144-7.071
		C3.011,42.816,3.069,44.695,3.105,47.402z"/>
	<polygon fill-rule="evenodd" clip-rule="evenodd" fill="#FECB05" points="37.601,16.7 22.94,44.986 17.075,42.054 31.736,13.768 	
		"/>
</g>
<path fill="#FECB05" d="M61.28,0.18H47.105v14.458h6.805c0,4.536-2.836,7.371-6.805,7.371v6.521
	c8.221-0.284,14.175-5.67,14.175-16.159V0.18z"/>
<path fill="#FECB05" d="M80.273,0.18H66.1v14.458h6.803c0,4.536-2.834,7.371-6.803,7.371v6.521
	c8.221-0.284,14.174-5.67,14.174-16.159V0.18z"/>
<g>
	<path fill="#262626" d="M101.99,5.021h3.192l11.762,29.993h-3.066l-3.654-9.325H96.571l-3.613,9.325h-3.066L101.99,5.021z
		 M97.453,23.251h11.805L103.46,7.877L97.453,23.251z"/>
	<path fill="#262626" d="M118.914,19.975c0.252-5.083,3.822-7.268,8.779-7.268c3.823,0,7.981,1.176,7.981,6.974v11.51
		c0,1.008,0.504,1.596,1.555,1.596c0.294,0,0.63-0.084,0.84-0.168v2.227c-0.588,0.127-1.008,0.168-1.723,0.168
		c-2.688,0-3.108-1.512-3.108-3.78h-0.084c-1.849,2.814-3.738,4.411-7.897,4.411c-3.99,0-7.268-1.975-7.268-6.343
		c0-6.091,5.924-6.301,11.637-6.973c2.185-0.252,3.402-0.546,3.402-2.941c0-3.57-2.563-4.453-5.671-4.453
		c-3.276,0-5.713,1.512-5.797,5.041H118.914z M133.028,23.167h-0.084c-0.336,0.63-1.512,0.84-2.227,0.966
		c-4.494,0.798-10.082,0.756-10.082,4.999c0,2.646,2.353,4.285,4.831,4.285c4.033,0,7.604-2.563,7.562-6.805V23.167z"/>
	<path fill="#262626" d="M141.006,5.021h2.646v29.993h-2.646V5.021z"/>
	<path fill="#262626" d="M152.935,13.338h4.41v2.227h-4.41v14.618c0,1.723,0.252,2.731,2.142,2.857c0.757,0,1.513-0.042,2.269-0.126
		v2.268c-0.798,0-1.554,0.084-2.353,0.084c-3.528,0-4.747-1.176-4.704-4.872V15.564h-3.781v-2.227h3.781V6.827h2.646V13.338z"/>
	<path fill="#262626" d="M180.572,24.176c0,6.217-3.612,11.468-10.25,11.468c-6.637,0-10.249-5.251-10.249-11.468
		s3.612-11.468,10.249-11.468C176.96,12.708,180.572,17.958,180.572,24.176z M162.72,24.176c0,4.621,2.52,9.242,7.603,9.242
		s7.604-4.621,7.604-9.242c0-4.621-2.521-9.242-7.604-9.242S162.72,19.555,162.72,24.176z"/>
	<path fill="#262626" d="M181.996,5.021h3.066l6.806,26.254h0.084l7.309-26.254h3.571l7.351,26.254h0.085l6.847-26.254h2.856
		l-8.275,29.993h-3.024l-7.604-26.842h-0.084l-7.562,26.842h-3.108L181.996,5.021z"/>
	<path fill="#262626" d="M223.66,5.021h2.646v4.243h-2.646V5.021z M223.66,13.338h2.646v21.675h-2.646V13.338z"/>
	<path fill="#262626" d="M231.346,13.338h2.646v3.739h0.084c0.966-2.604,3.864-4.369,6.932-4.369c6.091,0,7.938,3.193,7.938,8.36
		v13.946H246.3V21.487c0-3.739-1.218-6.553-5.503-6.553c-4.2,0-6.721,3.192-6.805,7.436v12.644h-2.646V13.338z"/>
	<path fill="#262626" d="M273.013,35.013h-2.437v-4.116h-0.084c-1.134,2.814-4.579,4.747-7.729,4.747
		c-6.595,0-9.745-5.335-9.745-11.468c0-6.133,3.15-11.468,9.745-11.468c3.234,0,6.386,1.639,7.52,4.747h0.084V5.021h2.646V35.013z
		 M262.763,33.417c5.629,0,7.604-4.747,7.604-9.242s-1.975-9.242-7.604-9.242c-5.041,0-7.099,4.747-7.099,9.242
		S257.722,33.417,262.763,33.417z"/>
	<path fill="#262626" d="M278.049,13.338h2.437v5.083h0.084c1.344-3.487,4.284-5.545,8.191-5.377v2.646
		c-4.789-0.252-8.065,3.276-8.065,7.771v11.552h-2.646V13.338z"/>
	<path fill="#262626" d="M291.026,19.975c0.252-5.083,3.822-7.268,8.779-7.268c3.823,0,7.981,1.176,7.981,6.974v11.51
		c0,1.008,0.504,1.596,1.555,1.596c0.294,0,0.63-0.084,0.84-0.168v2.227c-0.588,0.127-1.008,0.168-1.723,0.168
		c-2.688,0-3.108-1.512-3.108-3.78h-0.084c-1.849,2.814-3.738,4.411-7.897,4.411c-3.99,0-7.267-1.975-7.267-6.343
		c0-6.091,5.923-6.301,11.636-6.973c2.185-0.252,3.402-0.546,3.402-2.941c0-3.57-2.563-4.453-5.671-4.453
		c-3.276,0-5.713,1.512-5.797,5.041H291.026z M305.141,23.167h-0.084c-0.336,0.63-1.513,0.84-2.227,0.966
		c-4.494,0.798-10.082,0.756-10.082,4.999c0,2.646,2.353,4.285,4.831,4.285c4.033,0,7.604-2.563,7.562-6.805V23.167z"/>
	<path fill="#262626" d="M310.892,13.338h2.814l5.545,18.568h0.084l5.293-18.568h2.982l5.293,18.568h0.084l5.545-18.568h2.814
		l-6.973,21.675h-2.898l-5.335-18.231h-0.084l-5.293,18.231h-2.898L310.892,13.338z"/>
</g>
<g>
	<path fill="#666666" d="M91.41,40.848h7.7v0.985h-6.544v4.387h5.813v0.985h-5.813v5.779H91.41V40.848z"/>
	<path fill="#666666" d="M108.188,48.599c0,2.516-1.462,4.641-4.147,4.641s-4.147-2.125-4.147-4.641s1.462-4.641,4.147-4.641
		S108.188,46.083,108.188,48.599z M100.963,48.599c0,1.87,1.021,3.74,3.077,3.74s3.076-1.87,3.076-3.74
		c0-1.869-1.02-3.739-3.076-3.739S100.963,46.73,100.963,48.599z"/>
	<path fill="#666666" d="M109.786,44.214h0.986v2.057h0.034c0.544-1.411,1.733-2.244,3.314-2.176v1.07
		c-1.938-0.102-3.264,1.326-3.264,3.145v4.675h-1.071V44.214z"/>
	<path fill="#666666" d="M123.623,40.848h1.292l4.76,12.137h-1.241l-1.479-3.773h-5.524l-1.462,3.773h-1.241L123.623,40.848z
		 M121.787,48.225h4.776l-2.346-6.222L121.787,48.225z"/>
	<path fill="#666666" d="M130.475,46.9c0.102-2.057,1.547-2.941,3.553-2.941c1.547,0,3.229,0.477,3.229,2.822v4.657
		c0,0.408,0.204,0.646,0.629,0.646c0.119,0,0.255-0.033,0.34-0.067v0.901c-0.238,0.051-0.408,0.067-0.696,0.067
		c-1.088,0-1.259-0.612-1.259-1.53h-0.033c-0.748,1.139-1.514,1.785-3.196,1.785c-1.614,0-2.94-0.799-2.94-2.566
		c0-2.465,2.396-2.55,4.709-2.822c0.884-0.102,1.376-0.221,1.376-1.189c0-1.445-1.036-1.802-2.294-1.802
		c-1.326,0-2.313,0.612-2.346,2.04H130.475z M136.186,48.191h-0.033c-0.137,0.256-0.612,0.34-0.901,0.392
		c-1.818,0.323-4.079,0.306-4.079,2.022c0,1.07,0.951,1.734,1.954,1.734c1.632,0,3.077-1.037,3.06-2.754V48.191z"/>
	<path fill="#666666" d="M139.417,40.848h1.07v12.137h-1.07V40.848z"/>
	<path fill="#666666" d="M144.244,44.214h1.785v0.9h-1.785v5.916c0,0.696,0.102,1.104,0.867,1.155c0.306,0,0.611-0.017,0.918-0.052
		v0.918c-0.323,0-0.629,0.035-0.952,0.035c-1.428,0-1.921-0.477-1.904-1.973v-6h-1.529v-0.9h1.529V41.58h1.071V44.214z"/>
	<path fill="#666666" d="M155.43,48.599c0,2.516-1.462,4.641-4.147,4.641s-4.147-2.125-4.147-4.641s1.462-4.641,4.147-4.641
		S155.43,46.083,155.43,48.599z M148.205,48.599c0,1.87,1.021,3.74,3.077,3.74s3.076-1.87,3.076-3.74
		c0-1.869-1.02-3.739-3.076-3.739S148.205,46.73,148.205,48.599z"/>
	<path fill="#666666" d="M160.734,40.848h1.241l2.753,10.624h0.034l2.958-10.624h1.444l2.976,10.624h0.033l2.771-10.624h1.155
		l-3.349,12.137h-1.224l-3.077-10.862h-0.033l-3.06,10.862H164.1L160.734,40.848z"/>
	<path fill="#666666" d="M177.599,40.848h1.07v1.717h-1.07V40.848z M177.599,44.214h1.07v8.771h-1.07V44.214z"/>
	<path fill="#666666" d="M180.709,44.214h1.071v1.512h0.033c0.392-1.053,1.564-1.768,2.805-1.768c2.465,0,3.213,1.292,3.213,3.383
		v5.644h-1.07v-5.474c0-1.513-0.493-2.651-2.228-2.651c-1.699,0-2.72,1.292-2.753,3.009v5.116h-1.071V44.214z"/>
	<path fill="#666666" d="M197.572,52.985h-0.986v-1.666h-0.034c-0.459,1.14-1.853,1.921-3.127,1.921
		c-2.669,0-3.944-2.158-3.944-4.641c0-2.481,1.275-4.641,3.944-4.641c1.309,0,2.583,0.663,3.042,1.921h0.034v-5.031h1.071V52.985z
		 M193.425,52.339c2.277,0,3.076-1.922,3.076-3.74s-0.799-3.739-3.076-3.739c-2.04,0-2.873,1.921-2.873,3.739
		S191.385,52.339,193.425,52.339z"/>
	<path fill="#666666" d="M207.466,48.599c0,2.516-1.462,4.641-4.147,4.641s-4.147-2.125-4.147-4.641s1.462-4.641,4.147-4.641
		S207.466,46.083,207.466,48.599z M200.241,48.599c0,1.87,1.021,3.74,3.077,3.74s3.076-1.87,3.076-3.74
		c0-1.869-1.02-3.739-3.076-3.739S200.241,46.73,200.241,48.599z"/>
	<path fill="#666666" d="M208.181,44.214h1.139l2.244,7.513h0.034l2.142-7.513h1.207l2.142,7.513h0.034l2.244-7.513h1.139
		l-2.822,8.771h-1.173l-2.158-7.378h-0.034l-2.142,7.378h-1.173L208.181,44.214z"/>
	<path fill="#666666" d="M226.591,40.848h5.389c2.176,0,3.604,1.274,3.604,3.468c0,2.192-1.428,3.467-3.604,3.467h-4.232v5.202
		h-1.156V40.848z M227.747,46.797h3.978c1.598,0,2.703-0.815,2.703-2.481s-1.105-2.482-2.703-2.482h-3.978V46.797z"/>
	<path fill="#666666" d="M237.114,40.848h1.07v12.137h-1.07V40.848z"/>
	<path fill="#666666" d="M240.14,46.9c0.102-2.057,1.547-2.941,3.553-2.941c1.547,0,3.229,0.477,3.229,2.822v4.657
		c0,0.408,0.204,0.646,0.629,0.646c0.119,0,0.255-0.033,0.34-0.067v0.901c-0.237,0.051-0.408,0.067-0.696,0.067
		c-1.088,0-1.259-0.612-1.259-1.53h-0.033c-0.748,1.139-1.513,1.785-3.196,1.785c-1.614,0-2.94-0.799-2.94-2.566
		c0-2.465,2.396-2.55,4.709-2.822c0.884-0.102,1.376-0.221,1.376-1.189c0-1.445-1.036-1.802-2.294-1.802
		c-1.326,0-2.313,0.612-2.346,2.04H240.14z M245.851,48.191h-0.033c-0.137,0.256-0.612,0.34-0.901,0.392
		c-1.818,0.323-4.079,0.306-4.079,2.022c0,1.07,0.951,1.734,1.954,1.734c1.632,0,3.077-1.037,3.06-2.754V48.191z"/>
	<path fill="#666666" d="M250.765,44.214h1.785v0.9h-1.785v5.916c0,0.696,0.102,1.104,0.867,1.155c0.306,0,0.611-0.017,0.918-0.052
		v0.918c-0.323,0-0.629,0.035-0.952,0.035c-1.428,0-1.921-0.477-1.904-1.973v-6h-1.529v-0.9h1.529V41.58h1.071V44.214z"/>
	<path fill="#666666" d="M257.479,45.115h-1.733v7.87h-1.071v-7.87h-1.496v-0.9h1.496v-0.799c-0.017-1.514,0.408-2.567,2.125-2.567
		c0.306,0,0.561,0.017,0.9,0.067v0.918c-0.288-0.051-0.526-0.084-0.781-0.084c-1.19,0-1.156,0.748-1.173,1.699v0.766h1.733V45.115z"
		/>
	<path fill="#666666" d="M266.353,48.599c0,2.516-1.462,4.641-4.147,4.641s-4.147-2.125-4.147-4.641s1.462-4.641,4.147-4.641
		S266.353,46.083,266.353,48.599z M259.128,48.599c0,1.87,1.021,3.74,3.077,3.74s3.076-1.87,3.076-3.74
		c0-1.869-1.02-3.739-3.076-3.739S259.128,46.73,259.128,48.599z"/>
	<path fill="#666666" d="M267.951,44.214h0.986v2.057h0.034c0.544-1.411,1.733-2.244,3.314-2.176v1.07
		c-1.938-0.102-3.264,1.326-3.264,3.145v4.675h-1.071V44.214z"/>
	<path fill="#666666" d="M273.306,44.214h0.986v1.479h0.051c0.562-1.055,1.479-1.734,2.873-1.734c1.155,0,2.192,0.561,2.516,1.717
		c0.527-1.156,1.632-1.717,2.788-1.717c1.92,0,2.906,1.003,2.906,3.077v5.949h-1.071v-5.898c0-1.444-0.544-2.227-2.073-2.227
		c-1.853,0-2.38,1.53-2.38,3.161v4.964h-1.071v-5.949c0.018-1.19-0.476-2.176-1.835-2.176c-1.854,0-2.602,1.394-2.618,3.229v4.896
		h-1.071V44.214z"/>
</g>
</svg>
